<mxfile host="65bd71144e">
    <diagram id="q9hm_vXYIbsHtPNyg-fq" name="Page-1">
        <mxGraphModel dx="1204" dy="830" grid="1" gridSize="10" guides="1" tooltips="1" connect="1" arrows="1" fold="1" page="1" pageScale="1" pageWidth="827" pageHeight="1169" math="0" shadow="0">
            <root>
                <mxCell id="0"/>
                <mxCell id="1" parent="0"/>
                <mxCell id="18" value="&lt;font style=&quot;font-size: 8px&quot;&gt;&lt;b&gt;&lt;font style=&quot;font-size: 8px&quot;&gt;Card title&lt;/font&gt;&lt;/b&gt;&lt;br&gt;This is a wider card with supporting text below as a natural lead-in to additional content. This content is a little bit longer.&lt;br&gt;&lt;font style=&quot;font-size: 8px&quot; color=&quot;#999999&quot;&gt;Last udated 3 mind ago&lt;/font&gt;&lt;/font&gt;" style="html=1;shadow=0;dashed=0;shape=mxgraph.bootstrap.rrect;rSize=5;strokeColor=#DFDFDF;html=1;whiteSpace=wrap;fillColor=#ffffff;fontColor=#000000;verticalAlign=top;align=left;spacing=20;fontSize=14;spacingLeft=170;" vertex="1" parent="1">
                    <mxGeometry x="110" y="140" width="490" height="90" as="geometry"/>
                </mxCell>
                <mxCell id="19" value="Image" style="html=1;shadow=0;dashed=0;shape=mxgraph.bootstrap.leftButton;rSize=5;perimeter=none;whiteSpace=wrap;fillColor=#868E96;strokeColor=#DFDFDF;fontColor=#DEE2E6;resizeWidth=1;fontSize=18;" vertex="1" parent="18">
                    <mxGeometry width="173.55" height="90" relative="1" as="geometry"/>
                </mxCell>
                <mxCell id="20" value="Search" style="strokeWidth=1;shadow=0;dashed=0;align=center;html=1;shape=mxgraph.mockup.forms.searchBox;strokeColor=#999999;mainText=;strokeColor2=#008cff;fontColor=#666666;fontSize=17;align=left;spacingLeft=3;" vertex="1" parent="1">
                    <mxGeometry x="110" y="70" width="150" height="30" as="geometry"/>
                </mxCell>
                <mxCell id="27" value="&lt;font style=&quot;font-size: 8px&quot;&gt;&lt;b&gt;&lt;font style=&quot;font-size: 8px&quot;&gt;Card title&lt;/font&gt;&lt;/b&gt;&lt;br&gt;This is a wider card with supporting text below as a natural lead-in to additional content. This content is a little bit longer.&lt;br&gt;&lt;font style=&quot;font-size: 8px&quot; color=&quot;#999999&quot;&gt;Last udated 3 mind ago&lt;/font&gt;&lt;/font&gt;" style="html=1;shadow=0;dashed=0;shape=mxgraph.bootstrap.rrect;rSize=5;strokeColor=#DFDFDF;html=1;whiteSpace=wrap;fillColor=#ffffff;fontColor=#000000;verticalAlign=top;align=left;spacing=20;fontSize=14;spacingLeft=170;" vertex="1" parent="1">
                    <mxGeometry x="110" y="250" width="490" height="90" as="geometry"/>
                </mxCell>
                <mxCell id="28" value="Image" style="html=1;shadow=0;dashed=0;shape=mxgraph.bootstrap.leftButton;rSize=5;perimeter=none;whiteSpace=wrap;fillColor=#868E96;strokeColor=#DFDFDF;fontColor=#DEE2E6;resizeWidth=1;fontSize=18;" vertex="1" parent="27">
                    <mxGeometry width="173.55" height="90" relative="1" as="geometry"/>
                </mxCell>
                <mxCell id="29" value="&lt;font style=&quot;font-size: 8px&quot;&gt;&lt;b&gt;&lt;font style=&quot;font-size: 8px&quot;&gt;Card title&lt;/font&gt;&lt;/b&gt;&lt;br&gt;This is a wider card with supporting text below as a natural lead-in to additional content. This content is a little bit longer.&lt;br&gt;&lt;font style=&quot;font-size: 8px&quot; color=&quot;#999999&quot;&gt;Last udated 3 mind ago&lt;/font&gt;&lt;/font&gt;" style="html=1;shadow=0;dashed=0;shape=mxgraph.bootstrap.rrect;rSize=5;strokeColor=#DFDFDF;html=1;whiteSpace=wrap;fillColor=#ffffff;fontColor=#000000;verticalAlign=top;align=left;spacing=20;fontSize=14;spacingLeft=170;" vertex="1" parent="1">
                    <mxGeometry x="110" y="584.5" width="490" height="90" as="geometry"/>
                </mxCell>
                <mxCell id="30" value="Image" style="html=1;shadow=0;dashed=0;shape=mxgraph.bootstrap.leftButton;rSize=5;perimeter=none;whiteSpace=wrap;fillColor=#868E96;strokeColor=#DFDFDF;fontColor=#DEE2E6;resizeWidth=1;fontSize=18;" vertex="1" parent="29">
                    <mxGeometry width="173.55" height="90" relative="1" as="geometry"/>
                </mxCell>
                <mxCell id="21" value="&lt;font style=&quot;font-size: 8px&quot;&gt;&lt;b&gt;&lt;font style=&quot;font-size: 8px&quot;&gt;Card title&lt;/font&gt;&lt;/b&gt;&lt;br&gt;This is a wider card with supporting text below as a natural lead-in to additional content. This content is a little bit longer.&lt;br&gt;&lt;font style=&quot;font-size: 8px&quot; color=&quot;#999999&quot;&gt;Last udated 3 mind ago&lt;/font&gt;&lt;/font&gt;" style="html=1;shadow=0;dashed=0;shape=mxgraph.bootstrap.rrect;rSize=5;strokeColor=#DFDFDF;html=1;whiteSpace=wrap;fillColor=#ffffff;fontColor=#000000;verticalAlign=top;align=left;spacing=20;fontSize=14;spacingLeft=170;" vertex="1" parent="1">
                    <mxGeometry x="110" y="360" width="490" height="90" as="geometry"/>
                </mxCell>
                <mxCell id="22" value="Image" style="html=1;shadow=0;dashed=0;shape=mxgraph.bootstrap.leftButton;rSize=5;perimeter=none;whiteSpace=wrap;fillColor=#868E96;strokeColor=#DFDFDF;fontColor=#DEE2E6;resizeWidth=1;fontSize=18;" vertex="1" parent="21">
                    <mxGeometry width="173.55" height="90" relative="1" as="geometry"/>
                </mxCell>
                <mxCell id="23" value="&lt;font style=&quot;font-size: 8px&quot;&gt;&lt;b&gt;&lt;font style=&quot;font-size: 8px&quot;&gt;Card title&lt;/font&gt;&lt;/b&gt;&lt;br&gt;This is a wider card with supporting text below as a natural lead-in to additional content. This content is a little bit longer.&lt;br&gt;&lt;font style=&quot;font-size: 8px&quot; color=&quot;#999999&quot;&gt;Last udated 3 mind ago&lt;/font&gt;&lt;/font&gt;" style="html=1;shadow=0;dashed=0;shape=mxgraph.bootstrap.rrect;rSize=5;strokeColor=#DFDFDF;html=1;whiteSpace=wrap;fillColor=#ffffff;fontColor=#000000;verticalAlign=top;align=left;spacing=20;fontSize=14;spacingLeft=170;" vertex="1" parent="1">
                    <mxGeometry x="110" y="470" width="490" height="90" as="geometry"/>
                </mxCell>
                <mxCell id="24" value="Image" style="html=1;shadow=0;dashed=0;shape=mxgraph.bootstrap.leftButton;rSize=5;perimeter=none;whiteSpace=wrap;fillColor=#868E96;strokeColor=#DFDFDF;fontColor=#DEE2E6;resizeWidth=1;fontSize=18;" vertex="1" parent="23">
                    <mxGeometry width="173.55" height="90" relative="1" as="geometry"/>
                </mxCell>
                <mxCell id="25" value="&lt;font style=&quot;font-size: 8px&quot;&gt;&lt;b&gt;&lt;font style=&quot;font-size: 8px&quot;&gt;Card title&lt;/font&gt;&lt;/b&gt;&lt;br&gt;This is a wider card with supporting text below as a natural lead-in to additional content. This content is a little bit longer.&lt;br&gt;&lt;font style=&quot;font-size: 8px&quot; color=&quot;#999999&quot;&gt;Last udated 3 mind ago&lt;/font&gt;&lt;/font&gt;" style="html=1;shadow=0;dashed=0;shape=mxgraph.bootstrap.rrect;rSize=5;strokeColor=#DFDFDF;html=1;whiteSpace=wrap;fillColor=#ffffff;fontColor=#000000;verticalAlign=top;align=left;spacing=20;fontSize=14;spacingLeft=170;" vertex="1" parent="1">
                    <mxGeometry x="110" y="700" width="490" height="90" as="geometry"/>
                </mxCell>
                <mxCell id="26" value="Image" style="html=1;shadow=0;dashed=0;shape=mxgraph.bootstrap.leftButton;rSize=5;perimeter=none;whiteSpace=wrap;fillColor=#868E96;strokeColor=#DFDFDF;fontColor=#DEE2E6;resizeWidth=1;fontSize=18;" vertex="1" parent="25">
                    <mxGeometry width="173.55" height="90" relative="1" as="geometry"/>
                </mxCell>
            </root>
        </mxGraphModel>
    </diagram>
</mxfile>